<svg xmlns="http://www.w3.org/2000/svg" xmlns:xlink="http://www.w3.org/1999/xlink" viewBox="0 0 102.05 83.57"><defs><style>.cls-1{fill:#040000;}.cls-2{fill:url(#名称未設定グラデーション_3);}.cls-3{fill:url(#名称未設定グラデーション_3-2);}.cls-4{fill:url(#名称未設定グラデーション_3-3);}.cls-5{fill:#014460;}.cls-6{fill:url(#名称未設定グラデーション_4);}.cls-7{fill:url(#名称未設定グラデーション_13);}.cls-8{fill:url(#名称未設定グラデーション_13-2);}.cls-9{fill:#b61e22;}</style><linearGradient id="名称未設定グラデーション_3" x1="84.64" y1="-42.28" x2="84.64" y2="-46.75" gradientTransform="matrix(1, 0, 0, -1, 0, -9.58)" gradientUnits="userSpaceOnUse"><stop offset="0" stop-color="#002f47"/><stop offset="0.16" stop-color="#003149"/><stop offset="0.31" stop-color="#00354e"/><stop offset="0.45" stop-color="#003d55"/><stop offset="0.58" stop-color="#014760"/><stop offset="0.71" stop-color="#04556c"/><stop offset="0.84" stop-color="#35677b"/><stop offset="0.96" stop-color="#5f7e8d"/><stop offset="1" stop-color="#6c8693"/></linearGradient><linearGradient id="名称未設定グラデーション_3-2" x1="92.18" y1="-48.98" x2="92.18" y2="-66.55" xlink:href="#名称未設定グラデーション_3"/><linearGradient id="名称未設定グラデーション_3-3" x1="40.7" y1="-41.87" x2="40.7" y2="-72.86" xlink:href="#名称未設定グラデーション_3"/><radialGradient id="名称未設定グラデーション_4" cx="154.64" cy="165.63" r="63.04" gradientTransform="matrix(0.4, 0, 0, -0.4, -10.67, 90.14)" gradientUnits="userSpaceOnUse"><stop offset="0" stop-color="#6c8693"/><stop offset="0.04" stop-color="#4b7284"/><stop offset="0.09" stop-color="#296076"/><stop offset="0.15" stop-color="#025369"/><stop offset="0.21" stop-color="#014760"/><stop offset="0.28" stop-color="#003f57"/><stop offset="0.36" stop-color="#003850"/><stop offset="0.46" stop-color="#00334b"/><stop offset="0.61" stop-color="#003048"/><stop offset="1" stop-color="#002f47"/></radialGradient><radialGradient id="名称未設定グラデーション_13" cx="155.71" cy="167.59" r="55.67" gradientTransform="matrix(0.4, 0, 0, -0.4, -10.67, 90.14)" gradientUnits="userSpaceOnUse"><stop offset="0" stop-color="#f5ce34"/><stop offset="0.22" stop-color="#f5cb32"/><stop offset="0.44" stop-color="#f4c331"/><stop offset="0.66" stop-color="#f3b62b"/><stop offset="0.88" stop-color="#f0a228"/><stop offset="1" stop-color="#ef9527"/></radialGradient><radialGradient id="名称未設定グラデーション_13-2" cx="155.71" cy="167.59" r="55.67" xlink:href="#名称未設定グラデーション_13"/></defs><g id="レイヤー_2" data-name="レイヤー 2"><g id="レイヤー_2のコピー" data-name="レイヤー 2のコピー"><path class="cls-1" d="M18.83,78.22h.91v1.61a1.14,1.14,0,0,1,1-.51,1.05,1.05,0,0,1,1.09,1.19v2.08h-.91V80.8c0-.43-.21-.65-.56-.65s-.57.22-.57.65v1.79h-.91Z"/><path class="cls-1" d="M22.72,81.68V80.16h-.38v-.78h.38v-.82h.91v.82h.76v.78h-.76v1.37c0,.21.09.31.3.31a1,1,0,0,0,.45-.11v.73a1.42,1.42,0,0,1-.72.19C23.1,82.65,22.72,82.42,22.72,81.68Z"/><path class="cls-1" d="M25.21,81.68V80.16h-.38v-.78h.38v-.82h.91v.82h.76v.78h-.76v1.37c0,.21.09.31.3.31a1,1,0,0,0,.45-.11v.73a1.42,1.42,0,0,1-.72.19C25.59,82.65,25.21,82.42,25.21,81.68Z"/><path class="cls-1" d="M27.55,79.38h.91v.46a1.18,1.18,0,0,1,1-.52A1.52,1.52,0,0,1,30.93,81h0a1.51,1.51,0,0,1-1.47,1.66,1.24,1.24,0,0,1-1-.48v1.38h-.91ZM30,81h0a.79.79,0,1,0-1.56,0h0A.79.79,0,1,0,30,81Z"/><path class="cls-1" d="M31.59,79.38h1v1h-1Zm0,2.25h1v1h-1Z"/><path class="cls-1" d="M35.46,77.81h.77l-2.66,5.55H32.8Z"/><path class="cls-1" d="M38.64,77.81h.77l-2.66,5.55H36Z"/><path class="cls-1" d="M39.26,83.53v-.71l.19,0c.2,0,.33-.1.33-.37V79.38h.91v3.16a.91.91,0,0,1-1,1A1.59,1.59,0,0,1,39.26,83.53Zm.49-5.31h1V79h-1Z"/><path class="cls-1" d="M41.36,81.67h0c0-.7.53-1,1.29-1a2.5,2.5,0,0,1,.79.13v-.05c0-.38-.24-.59-.69-.59a2.32,2.32,0,0,0-.89.18l-.23-.7a2.8,2.8,0,0,1,1.25-.26A1.44,1.44,0,0,1,44,79.7a1.42,1.42,0,0,1,.35,1v1.86h-.88v-.35a1.22,1.22,0,0,1-1,.41A1,1,0,0,1,41.36,81.67Zm2.09-.21V81.3a1.31,1.31,0,0,0-.58-.12c-.39,0-.63.15-.63.44h0c0,.25.2.39.5.39S43.45,81.79,43.45,81.46Z"/><path class="cls-1" d="M45.06,81.63h1v1h-1Z"/><path class="cls-1" d="M46.67,81h0a1.51,1.51,0,0,1,1.46-1.66,1.25,1.25,0,0,1,1,.48V78.22h.91v4.37h-.91v-.46a1.2,1.2,0,0,1-1,.52A1.52,1.52,0,0,1,46.67,81Zm2.48,0h0a.79.79,0,1,0-1.57,0h0a.79.79,0,1,0,1.57,0Z"/><path class="cls-1" d="M51.78,82.17v.42h-.91V78.22h.91v1.62a1.17,1.17,0,0,1,1-.52A1.51,1.51,0,0,1,54.24,81h0a1.51,1.51,0,0,1-1.46,1.66A1.21,1.21,0,0,1,51.78,82.17ZM53.33,81h0a.79.79,0,1,0-1.57,0h0a.79.79,0,1,0,1.57,0Z"/><path class="cls-1" d="M54.91,79.38h.92v.46a1.17,1.17,0,0,1,1-.52A1.51,1.51,0,0,1,58.29,81h0a1.51,1.51,0,0,1-1.46,1.66,1.21,1.21,0,0,1-1-.48v1.38h-.92ZM57.38,81h0a.79.79,0,1,0-1.57,0h0a.79.79,0,1,0,1.57,0Z"/><path class="cls-1" d="M58.81,81h0a1.59,1.59,0,0,1,1.59-1.67A1.56,1.56,0,0,1,62,81.06a2,2,0,0,1,0,.24H59.71a.74.74,0,0,0,.79.63,1,1,0,0,0,.78-.33l.52.46a1.58,1.58,0,0,1-1.31.6A1.6,1.6,0,0,1,58.81,81Zm2.27-.27a.7.7,0,0,0-.68-.68.72.72,0,0,0-.7.68Z"/><path class="cls-1" d="M62.5,81h0A1.51,1.51,0,0,1,64,79.32a1.21,1.21,0,0,1,1,.48V78.22h.91v4.37H65v-.46a1.17,1.17,0,0,1-1,.52A1.51,1.51,0,0,1,62.5,81ZM65,81h0a.79.79,0,1,0-1.57,0h0A.79.79,0,1,0,65,81Z"/><path class="cls-1" d="M66.71,78.22h1V79h-1Zm0,1.16h.92v3.21h-.92Z"/><path class="cls-1" d="M68.31,81.67h0c0-.7.54-1,1.3-1a2.44,2.44,0,0,1,.78.13v-.05c0-.38-.23-.59-.69-.59a2.3,2.3,0,0,0-.88.18l-.23-.7a2.77,2.77,0,0,1,1.25-.26,1.48,1.48,0,0,1,1.08.36,1.42,1.42,0,0,1,.35,1v1.86h-.88v-.35a1.22,1.22,0,0,1-1,.41A1,1,0,0,1,68.31,81.67Zm2.1-.21V81.3a1.32,1.32,0,0,0-.59-.12c-.39,0-.63.15-.63.44h0c0,.25.21.39.5.39S70.41,81.79,70.41,81.46Z"/><path class="cls-1" d="M72,81.63h1v1H72Z"/><path class="cls-1" d="M73.62,81h0a1.74,1.74,0,0,1,3.47,0h0a1.68,1.68,0,0,1-1.74,1.67A1.66,1.66,0,0,1,73.62,81Zm2.57,0h0a.86.86,0,0,0-.84-.89.83.83,0,0,0-.83.88h0a.85.85,0,0,0,.84.89A.82.82,0,0,0,76.19,81Z"/><path class="cls-1" d="M77.76,79.38h.91V80a1,1,0,0,1,1-.71v1h0c-.6,0-1,.37-1,1.13v1.19h-.91Z"/><path class="cls-1" d="M80.28,83.23l.31-.69a2.07,2.07,0,0,0,1.09.3c.62,0,.92-.3.92-.88v-.15a1.27,1.27,0,0,1-1,.52,1.42,1.42,0,0,1-1.43-1.5h0a1.42,1.42,0,0,1,1.43-1.5,1.29,1.29,0,0,1,1,.48v-.42h.92v2.49a1.72,1.72,0,0,1-.41,1.26,1.89,1.89,0,0,1-1.39.43A3.13,3.13,0,0,1,80.28,83.23Zm2.32-2.4h0a.75.75,0,0,0-.79-.75.74.74,0,0,0-.78.75h0a.74.74,0,0,0,.78.74A.74.74,0,0,0,82.6,80.83Z"/><path class="cls-2" d="M82.5,37.17h4.27A.2.2,0,0,0,87,37V32.9a.2.2,0,0,0-.2-.2H82.5a.2.2,0,0,0-.19.2V37A.2.2,0,0,0,82.5,37.17Z"/><path class="cls-3" d="M101.86,52.72v-.06l-.06-4v-2.1c0-5-2.17-7.11-7.27-7.11a14.87,14.87,0,0,0-5.79,1.26.19.19,0,0,0-.11.18l.13,3.67a.18.18,0,0,0,.11.17.21.21,0,0,0,.2,0,8.43,8.43,0,0,1,5-1.75c2.45,0,3.44.89,3.49,3.15H95.35a12.64,12.64,0,0,0-5.6,1A4.83,4.83,0,0,0,87,50.58V40a.2.2,0,0,0-.2-.19H82.5a.2.2,0,0,0-.19.19V56.39a.2.2,0,0,0,.19.2h4.27a.2.2,0,0,0,.2-.2V53c.62,2.56,3.28,3.93,5.8,3.93a6.14,6.14,0,0,0,5-2.51,14.05,14.05,0,0,0,.17,2,.2.2,0,0,0,.19.16h3.76a.21.21,0,0,0,.15-.07.24.24,0,0,0,0-.14C102,55,101.89,53.9,101.86,52.72Zm-5.2-.65a3.42,3.42,0,0,1-2.84,1.38c-.76,0-2.51-.17-2.51-1.81S92.79,49,95.86,49H97.5A5.1,5.1,0,0,1,96.66,52.07Z"/><path class="cls-4" d="M80.15,32.29H76.92a.19.19,0,0,0-.19.19v9A6,6,0,0,0,72,39.4a6.36,6.36,0,0,0-6.53,4.86C64.32,41,62,39.4,58.15,39.4a7.2,7.2,0,0,0-7.09,4.83,6.36,6.36,0,0,0-6.52-4.83,5.81,5.81,0,0,0-5,2.37V40a.2.2,0,0,0-.2-.19H35.29a.19.19,0,0,0-.19.19V48.9a5.29,5.29,0,0,0-4.42-4.08,5,5,0,0,0,3.85-5c0-5.14-4.62-5.91-7.37-5.91H19.38a.2.2,0,0,0-.19.2V43.2c-.77-6.14-5.09-9.26-12.91-9.26H.19a.2.2,0,0,0-.19.2V56.39a.19.19,0,0,0,.19.19H6.28c7.82,0,12.14-3.11,12.91-9.25v9.06a.19.19,0,0,0,.19.19h7.78c2.24,0,7.19-.56,7.94-5.36V63.08a.19.19,0,0,0,.19.2h3c.76-.11,1.35-.62,1.48-1.78V54.94a5.75,5.75,0,0,0,4.68,2A6.45,6.45,0,0,0,51,52.08C52.26,55.23,55.09,57,59.1,57a11.44,11.44,0,0,0,5.74-1.33.21.21,0,0,0,.1-.17V52a.2.2,0,0,0-.09-.17.23.23,0,0,0-.2,0,11,11,0,0,1-5.35,1.63c-2.56,0-4.2-1.4-4.46-3.75H65c.48,4.62,3,7.27,7,7.27a6.32,6.32,0,0,0,4.91-2v1.45a.18.18,0,0,0,.19.19H81.2a.19.19,0,0,0,.19-.19V33.72A1.65,1.65,0,0,0,80.15,32.29Zm-73,20.4H4.85V37.84H7.14a7.13,7.13,0,0,1,7.14,7.42A7.13,7.13,0,0,1,7.14,52.69ZM24,37.84h1.53c2.08,0,4.11.2,4.11,2.58,0,1.67-1.35,2.51-4,2.51H24ZM26,52.69H24v-6H26c2.05,0,4.4.36,4.4,3.15C30.35,51.71,28.87,52.69,26,52.69Zm17.41.57c-2.64,0-3.57-2.76-3.57-5.13s1.14-5,3.63-5c3.18,0,3.34,4.19,3.34,5S46.6,53.26,43.36,53.26Zm11.48-6.88c.26-2.21,1.55-3.47,3.56-3.47,2.54,0,3.14,2.08,3.26,3.47Zm18.29,6.88c-3.24,0-3.41-4.27-3.41-5.13s.16-5,3.35-5c2.49,0,3.63,2.61,3.63,5S75.76,53.26,73.13,53.26Z"/><path class="cls-5" d="M72,26c-.76,0-1.61,0-2.5,0C64,25.87,56,25.73,51.3,31.86c-4.68-6.13-12.64-6-18.19-5.89-.89,0-1.73,0-2.5,0-.18,0-1.92.05-5.18.16,0,0,.22,4.09,3.1,4.09,1,0,1.78,0,2,0,.81,0,1.68,0,2.61,0,7.56-.13,13.56.29,16.25,6.89L50,38.4h2.65l.53-1.32c2.69-6.6,8.69-7,16.25-6.89.93,0,1.81,0,2.61,0,.27,0,1,0,2,0,2.88,0,3.1-4.09,3.1-4.09C73.92,26,72.17,26,72,26Z"/><path class="cls-6" d="M53.47.45h0A4.76,4.76,0,0,0,51,3.16a4.86,4.86,0,0,0,.17,3.67,4.77,4.77,0,0,0,3.77,2.68c0,.45.09.9.09,1.36,0,.22,0,.44,0,.66a3.63,3.63,0,0,0-.59.14,3.24,3.24,0,0,0-1.7,1.86,3.31,3.31,0,0,0-.2,1.12A3.35,3.35,0,0,0,52.82,16a3.18,3.18,0,0,0,.82,1,17.79,17.79,0,0,1-1.79,3.06l-.2,0a20.1,20.1,0,0,0-.93-3.45,2.83,2.83,0,0,0,.4-1.38,2.82,2.82,0,0,0-2.62-2.8,18.09,18.09,0,0,0-4.25-4.26,4.58,4.58,0,0,0,.12-.71A3.8,3.8,0,0,0,37,6.19a3.74,3.74,0,0,0,5.65,4.39,14.48,14.48,0,0,1,3.27,3.22,2.9,2.9,0,0,0-.49,1.49,2.87,2.87,0,0,0,.27,1.2,2.83,2.83,0,0,0,2.47,1.62,18.14,18.14,0,0,1,.65,2.66,2.65,2.65,0,0,0-.26.21,19.59,19.59,0,0,0-4.11-2.18l-.1-.35a2.84,2.84,0,0,0-3.78-1.37,2.76,2.76,0,0,0-.8.6,17.86,17.86,0,0,0-4.73.18,3.78,3.78,0,0,0-6.57,3.7,3.81,3.81,0,0,0,5.06,1.84,3.76,3.76,0,0,0,2.09-2.73,15.06,15.06,0,0,1,3.49-.18,1.54,1.54,0,0,0,.09.37A2.84,2.84,0,0,0,43,22.23a2.6,2.6,0,0,0,.8-.59,17.37,17.37,0,0,1,3.62,2.07A3.66,3.66,0,0,0,52.63,27a3.64,3.64,0,0,0,1.95-2.35,19.65,19.65,0,0,0,5.76-1.7,2.79,2.79,0,0,0,4.28-2.39,2.63,2.63,0,0,0-.06-.39,18,18,0,0,0,2.4-2.6,4.22,4.22,0,0,0,2.82-.23A4.29,4.29,0,1,0,64.55,16a14.6,14.6,0,0,1-1.77,1.92A2.78,2.78,0,0,0,59,20.39a17.55,17.55,0,0,1-4.7,1.35,20.2,20.2,0,0,0,2.2-3.93,2.92,2.92,0,0,0,.72-.18,3.24,3.24,0,0,0,1.7-1.86,3.31,3.31,0,0,0,.2-1.12,3.39,3.39,0,0,0-.31-1.39,3.28,3.28,0,0,0-1-1.14c0-.41.05-.82.05-1.24,0-.62-.06-1.25-.12-1.87A4.75,4.75,0,0,0,60,6.43a4.65,4.65,0,0,0,.29-1.64A4.79,4.79,0,0,0,53.47.45Z"/><path class="cls-7" d="M50,15.41A1.72,1.72,0,1,0,48.15,17,1.72,1.72,0,0,0,50,15.41Z"/><circle class="cls-8" cx="51.1" cy="23.66" r="2.65"/><circle class="cls-7" cx="31.91" cy="19.94" r="2.58"/><path class="cls-7" d="M43.21,7.73a2.58,2.58,0,1,0-2.76,2.39A2.58,2.58,0,0,0,43.21,7.73Z"/><path class="cls-7" d="M41.9,18a1.71,1.71,0,1,0,1.58,1.83A1.71,1.71,0,0,0,41.9,18Z"/><path class="cls-7" d="M68.17,10.65a2.81,2.81,0,1,0,2.59,3A2.8,2.8,0,0,0,68.17,10.65Z"/><circle class="cls-7" cx="61.78" cy="20.54" r="1.72"/><circle class="cls-7" cx="55.8" cy="14.65" r="2.07"/><path class="cls-7" d="M55.74,1.48A3.33,3.33,0,1,0,58.82,5,3.33,3.33,0,0,0,55.74,1.48Z"/><path class="cls-9" d="M83.38,60.64V68H82.07v-.55H78.62V68H77.37V60.64Zm-4.76,1.22v1.52h3.45V61.86Zm3.45,4.35V64.58H78.62v1.63Z"/><path class="cls-9" d="M90.21,62.94A7.39,7.39,0,0,0,93,65.78,5.46,5.46,0,0,0,92,66.87a6.74,6.74,0,0,1-1.28-1.07v1H89.5v1.32H88.21V66.76H86.89V65.9a6.83,6.83,0,0,1-1.21,1,7.08,7.08,0,0,0-.88-1,7.2,7.2,0,0,0,2.71-3H85.15V61.71h3.06V60.17H89.5v1.54h3.08v1.23Zm-2,2.59V64.12a10.37,10.37,0,0,1-1,1.41Zm2.29,0a10,10,0,0,1-1-1.44v1.44Z"/><path class="cls-9" d="M96.89,62.53H93.73v-.94h3.16Zm-.24,5.25H95.11v.3h-1V65.19h2.55Zm-.07-4.07H94.14v-.9h2.44ZM94.14,64h2.44v.9H94.14Zm2.46-2.68H94.19v-.9H96.6Zm-1.49,4.82v.71h.52v-.71Zm6.57-2.64v1.05H96.8V63.49h1c0-.2.08-.41.11-.64h-.63v-1h.79l.06-.45h-1v-1h4.24v1H99.29l-.07.45H101v1.65ZM97.4,64.88h3.74v3.17H100V67.8H98.53v.28H97.4ZM98.53,66v.77H100V66Zm.53-3.1c0,.23-.07.44-.12.64h.88v-.64Z"/></g></g></svg>