<svg xmlns="http://www.w3.org/2000/svg" viewBox="0 0 90.79 136.05"><defs><style>.cls-1{fill:#d1161a;}.cls-2{fill:#231815;}</style></defs><g id="レイヤー_2" data-name="レイヤー 2"><g id="レイヤー_2-2" data-name="レイヤー 2"><path class="cls-1" d="M67.6,12.54a21.62,21.62,0,0,1,7.89,10.85h0A21.66,21.66,0,0,1,73,42a32,32,0,0,1,3.33,7.11c.17.52.32,1.06.46,1.59a30.37,30.37,0,0,0,6.7-11.31,30.33,30.33,0,0,0,0-18.61h0a29.86,29.86,0,0,0-10.94-15h0A29.86,29.86,0,0,0,54.86,0h0a29.36,29.36,0,0,0-5.46.52A32.1,32.1,0,0,1,60.87,9.24a21.63,21.63,0,0,1,6.73,3.3Z"/><path class="cls-1" d="M60.68,80.57a32.38,32.38,0,0,1-7.9-1,21.74,21.74,0,0,1-20.14-2.85,21.9,21.9,0,0,1-7.89-10.86,21.4,21.4,0,0,1-1-5.68A32.17,32.17,0,0,1,17,56.52h0l-.14-.1h0l-.15-.12c-.4-.29-.78-.58-1.16-.89a31.7,31.7,0,0,0-.23,3.78,30.2,30.2,0,0,0,1.46,9.31h0a30.41,30.41,0,0,0,10.94,15A30.05,30.05,0,0,0,67.21,79.9a32.59,32.59,0,0,1-6.53.67Z"/><path class="cls-1" d="M1.48,57.37A29.87,29.87,0,0,0,12.42,72.42h0a30.39,30.39,0,0,0,4.72,2.8,33.12,33.12,0,0,1-2.66-6A32.58,32.58,0,0,1,13,61.4a21.69,21.69,0,0,1-3.51-6.62h0a21.53,21.53,0,0,1,0-13.42h0A21.93,21.93,0,0,1,17.35,30.5h0a21.51,21.51,0,0,1,5.09-2.73,31.7,31.7,0,0,1,1.49-7.71c.17-.53.36-1,.55-1.56a30.1,30.1,0,0,0-12.06,5.21h0a30.38,30.38,0,0,0-10.94,15,30,30,0,0,0,0,18.61Z"/><path class="cls-1" d="M11,21.77a31.92,31.92,0,0,1,7-3.84,21.71,21.71,0,0,1,18-9.53h0a21.84,21.84,0,0,1,12.76,4.14h0a21.94,21.94,0,0,1,4.18,4,32.21,32.21,0,0,1,7.79-1c.55,0,1.1,0,1.65,0a30.77,30.77,0,0,0-2-3.2,29.8,29.8,0,0,0-6.65-6.66A30.41,30.41,0,0,0,36,0h0A30.12,30.12,0,0,0,7.32,20.8h0a30.76,30.76,0,0,0-1.2,5.36A31.83,31.83,0,0,1,11,21.77Z"/><path class="cls-1" d="M15.3,36.81h0c-.09-.27-.17-.54-.25-.81a19.36,19.36,0,0,0-3.3,6.11h0a19.31,19.31,0,0,0-.9,4.6c.24.36.49.73.75,1.08a30.06,30.06,0,0,0,6.65,6.67h0a30.33,30.33,0,0,0,12.07,5.2c-.19-.51-.38-1-.55-1.54l-2.66-8.2a21.76,21.76,0,0,1-3.92-2.25h0a21.9,21.9,0,0,1-4.8-4.81A21.5,21.5,0,0,1,15.3,36.81Z"/><path class="cls-1" d="M25,33.93c.36-.29.74-.58,1.12-.85l7.13-5.19a22.13,22.13,0,0,1,.94-4.49h0a22.1,22.1,0,0,1,3.09-6.06,21.64,21.64,0,0,1,4.8-4.8h0l.7-.49a19.22,19.22,0,0,0-11.49-.69c-.28.34-.54.7-.8,1.05a29.84,29.84,0,0,0-4.28,8.39h0A30.25,30.25,0,0,0,25,33.93Z"/><path class="cls-1" d="M34.05,74.8a19.64,19.64,0,0,0,4.1,2.28q.63-.18,1.26-.39a29.6,29.6,0,0,0,8.4-4.27,30.09,30.09,0,0,0,8.67-9.86c-.54,0-1.09,0-1.63,0H46.23a21.57,21.57,0,0,1-3.36,3h0a21.89,21.89,0,0,1-12.76,4.14h0l-.85,0A19.46,19.46,0,0,0,34.05,74.8Z"/><path class="cls-1" d="M63.76,53.2a18.38,18.38,0,0,0-1.18-2.83,21.77,21.77,0,0,1-7.74,1.44H41.59L42.32,54a19.47,19.47,0,0,0,3.35,6.17h9.18a30.22,30.22,0,0,0,9.84-1.67A19.24,19.24,0,0,0,63.76,53.2Z"/><path class="cls-1" d="M29.2,48.61l2.85,8.76a30.21,30.21,0,0,0,4.64,8.85,19.13,19.13,0,0,0,4.73-2.5l0,0a18.89,18.89,0,0,0,2.32-2A21.92,21.92,0,0,1,40,54.78L36,42.23l-2.09,1.52A19.46,19.46,0,0,0,29.2,48.61Z"/><path class="cls-1" d="M20.54,42.16a19,19,0,0,0,3.89,3.76h0a18.34,18.34,0,0,0,2.62,1.6,21.62,21.62,0,0,1,5.41-5.71l10.94-8-1.94-1.41a19.41,19.41,0,0,0-6.27-3L27.53,35A30.37,30.37,0,0,0,20.54,42.16Z"/><path class="cls-1" d="M52.5,49.41h2.34a19.29,19.29,0,0,0,6.89-1.28h0l2.84-8.72A30.42,30.42,0,0,0,66,29.52,18.66,18.66,0,0,0,57.62,29a21.73,21.73,0,0,1-1,7.8Z"/><path class="cls-1" d="M38.85,19.28a19.41,19.41,0,0,0-2.38,4.86l0,.05a18.92,18.92,0,0,0-.68,2.93,21.93,21.93,0,0,1,7.1,3.39l10.72,7.78.73-2.22a19.51,19.51,0,0,0,.9-6.94v0l-7.42-5.4A30.3,30.3,0,0,0,38.85,19.28Z"/><path class="cls-1" d="M65.76,66.69a19.48,19.48,0,0,0,9.71-6.2q0-.66,0-1.32a29.95,29.95,0,0,0-8.18-20.6c-.14.53-.29,1-.46,1.57l-2.66,8.2A21.69,21.69,0,0,1,66,52.46a21.77,21.77,0,0,1,0,13.42C66,66.16,65.86,66.42,65.76,66.69Z"/><path class="cls-1" d="M81.32,54.78a21.52,21.52,0,0,1-7.88,10.85h0a21.94,21.94,0,0,1-12.76,4.15h0A21.4,21.4,0,0,1,55,69a31.73,31.73,0,0,1-5.74,5.37c-.44.32-.9.63-1.36.93a27.52,27.52,0,0,0,3.53,1.39,29.72,29.72,0,0,0,9.3,1.49h0a30.37,30.37,0,0,0,17.69-5.76A29.81,29.81,0,0,0,89.31,57.37h0a29.9,29.9,0,0,0,0-18.61,30.7,30.7,0,0,0-2.18-5,32.18,32.18,0,0,1-4.75,13.62,21.72,21.72,0,0,1-1.06,7.43Z"/><path class="cls-1" d="M60.68,18a30.22,30.22,0,0,0-12.54,2.76c.42.28.84.56,1.25.86l7.14,5.19a21.47,21.47,0,0,1,4.15-.41A21.7,21.7,0,0,1,73.44,30.5c.23.17.46.34.68.52a19.42,19.42,0,0,0-.92-6.89,18.94,18.94,0,0,0-2-4.25c-.41-.16-.82-.3-1.24-.44A30,30,0,0,0,60.68,18Z"/><path class="cls-2" d="M2.21,104.15a.63.63,0,0,1,.71-.71H3a.64.64,0,0,1,.72.71v15.19H6.62a.59.59,0,0,1,.66.67v0a.6.6,0,0,1-.66.66H3a.73.73,0,0,1-.81-.81Z"/><path class="cls-2" d="M15.57,117.84a2.69,2.69,0,0,1-3,3h-.79a2.69,2.69,0,0,1-3-3v-11.5c0-2,1-3,3-3h.79c2,0,3,1,3,3Zm-1.48-11.55c0-1.06-.51-1.57-1.6-1.57H11.8a1.39,1.39,0,0,0-1.6,1.57v11.62a1.4,1.4,0,0,0,1.6,1.58h.69a1.39,1.39,0,0,0,1.6-1.58Z"/><path class="cls-2" d="M18.38,120.72a.73.73,0,0,1-.81-.81V104.3a.73.73,0,0,1,.81-.82h2.21c2.47,0,3.67,1.21,3.67,3.67v9.9c0,2.46-1.2,3.67-3.67,3.67ZM19,104.86v14.48h1.48a2,2,0,0,0,2.27-2.29v-9.9a2,2,0,0,0-2.27-2.29Z"/><path class="cls-2" d="M34.85,114.69a.43.43,0,0,1,.47-.45h0a.42.42,0,0,1,.44.45V118a2.51,2.51,0,0,1-2.83,2.8h-.69c-1.9,0-2.86-1-2.86-2.8v-11.9c0-1.82,1-2.78,2.86-2.78H33a2.5,2.5,0,0,1,2.84,2.78V109a.42.42,0,0,1-.45.46h-.05a.42.42,0,0,1-.46-.46v-2.86a1.65,1.65,0,0,0-1.9-1.85h-.62c-1.28,0-1.92.62-1.92,1.85v12c0,1.23.64,1.84,1.92,1.84H33a1.64,1.64,0,0,0,1.87-1.84Z"/><path class="cls-2" d="M38.83,120.35a.41.41,0,0,1-.42.44h0a.41.41,0,0,1-.44-.44V103.58a.4.4,0,0,1,.44-.41h0a.4.4,0,0,1,.42.41v5a3.82,3.82,0,0,1,2.58-1.11c1.5,0,2.24.69,2.24,2.14v10.76a.4.4,0,0,1-.42.44h0a.41.41,0,0,1-.44-.44V109.74a1.22,1.22,0,0,0-1.38-1.4,4.08,4.08,0,0,0-2.53,1.28Z"/><path class="cls-2" d="M50.29,119.78a4,4,0,0,1-2.51,1.06,1.87,1.87,0,0,1-2.14-2.09v-2.44c0-1.4.52-2,1.94-2.61l2.71-1V110c0-1.06-.54-1.62-1.77-1.62s-1.85.56-1.85,1.62v1.38a.4.4,0,0,1-.41.44h0a.42.42,0,0,1-.45-.44V110c0-1.65.91-2.54,2.76-2.54s2.71.89,2.71,2.54v10.36a.41.41,0,0,1-.44.44h0a.42.42,0,0,1-.45-.44ZM48,120H48a3.87,3.87,0,0,0,2.26-1.16v-5.27l-2.34.94c-1,.42-1.38.86-1.38,1.87v2.26C46.57,119.54,47,120,48,120Z"/><path class="cls-2" d="M53.81,120.79a.42.42,0,0,1-.45-.44V103.61a.42.42,0,0,1,.45-.44h0a.41.41,0,0,1,.44.44v16.74a.41.41,0,0,1-.44.44Z"/><path class="cls-2" d="M56.92,120.79a.42.42,0,0,1-.45-.44V103.61a.42.42,0,0,1,.45-.44h0a.41.41,0,0,1,.44.44v16.74a.41.41,0,0,1-.44.44Z"/><path class="cls-2" d="M65.24,118.11a2.43,2.43,0,0,1-2.73,2.73h-.3a2.42,2.42,0,0,1-2.73-2.73v-7.93a2.43,2.43,0,0,1,2.73-2.73h.3a2.44,2.44,0,0,1,2.73,2.73v3.89a.46.46,0,0,1-.47.47H60.41v3.6A1.61,1.61,0,0,0,62.23,120h.28a1.62,1.62,0,0,0,1.82-1.82V117a.4.4,0,0,1,.44-.41h0a.4.4,0,0,1,.42.41Zm-4.83-8v3.49H64.3v-3.49c0-1.21-.61-1.82-1.94-1.82S60.41,109,60.41,110.16Z"/><path class="cls-2" d="M70.76,107.45c1.5,0,2.24.69,2.24,2.14v10.76a.41.41,0,0,1-.42.44h0a.41.41,0,0,1-.44-.44V109.74a1.23,1.23,0,0,0-1.38-1.4,4.1,4.1,0,0,0-2.54,1.28v10.73a.4.4,0,0,1-.42.44h0a.41.41,0,0,1-.44-.44V107.92a.4.4,0,0,1,.44-.42h0a.4.4,0,0,1,.42.42v.64A3.84,3.84,0,0,1,70.76,107.45Z"/><path class="cls-2" d="M77.27,119.64A2,2,0,0,1,75,117.45v-7.81a2,2,0,0,1,2.24-2.19,3.91,3.91,0,0,1,2.59,1.08v-.59a.41.41,0,0,1,.44-.44h0a.41.41,0,0,1,.44.44v13.2c0,1.57-.79,2.36-2.49,2.36h-.76c-1.65,0-2.41-.76-2.41-2.24v-.17a.39.39,0,0,1,.42-.39h0a.37.37,0,0,1,.39.39v.2c0,.91.49,1.4,1.58,1.4h.76c1.08,0,1.53-.54,1.53-1.45v-2.71A3.86,3.86,0,0,1,77.27,119.64Zm-1.33-2.29a1.25,1.25,0,0,0,1.38,1.4,3.78,3.78,0,0,0,2.54-1.23v-7.88a3.81,3.81,0,0,0-2.47-1.3,1.27,1.27,0,0,0-1.45,1.4Z"/><path class="cls-2" d="M88.58,118.11a2.43,2.43,0,0,1-2.73,2.73h-.3a2.42,2.42,0,0,1-2.73-2.73v-7.93a2.43,2.43,0,0,1,2.73-2.73h.3a2.43,2.43,0,0,1,2.73,2.73v3.89a.45.45,0,0,1-.47.47H83.76v3.6A1.61,1.61,0,0,0,85.58,120h.27a1.62,1.62,0,0,0,1.82-1.82V117a.4.4,0,0,1,.44-.41h0a.4.4,0,0,1,.42.41Zm-4.82-8v3.49h3.89v-3.49c0-1.21-.62-1.82-2-1.82S83.76,109,83.76,110.16Z"/><path class="cls-2" d="M33.67,133.45v1.22a1.24,1.24,0,0,1-1.41,1.38H32a1.23,1.23,0,0,1-1.4-1.37V133h.67v1.67c0,.48.26.71.75.71h.2c.5,0,.75-.23.75-.71v-1.23a1,1,0,0,0-.46-.88l-1.18-.88a1.56,1.56,0,0,1-.72-1.44v-1A1.24,1.24,0,0,1,32,127.89h.22a1.23,1.23,0,0,1,1.4,1.37v1.42H33v-1.44c0-.48-.24-.71-.75-.71h-.17c-.5,0-.74.23-.74.71v1a1,1,0,0,0,.45.89L33,132A1.55,1.55,0,0,1,33.67,133.45Z"/><path class="cls-2" d="M34.6,128.22h.68v.87H34.6Zm0,1.61h.66V136h-.66Z"/><path class="cls-2" d="M36.26,129.83h.65v.42a1.75,1.75,0,0,1,1.14-.49h0a.93.93,0,0,1,1,1.05V136h-.65v-5a.5.5,0,0,0-.57-.56h0a1.54,1.54,0,0,0-1,.39V136h-.65Z"/><path class="cls-2" d="M42.2,131.08a.61.61,0,0,0-.69-.7h-.16a.61.61,0,0,0-.69.7v3.65a.61.61,0,0,0,.69.69h.17a.61.61,0,0,0,.69-.69v-1.17h.65v1.15a1.18,1.18,0,0,1-1.33,1.34h-.19A1.19,1.19,0,0,1,40,134.71V131.1a1.18,1.18,0,0,1,1.34-1.34h.19a1.16,1.16,0,0,1,1.32,1.32v1H42.2Z"/><path class="cls-2" d="M44.38,133.16v1.57a.61.61,0,0,0,.7.69h.13a.62.62,0,0,0,.7-.69V134h.65v.69a1.2,1.2,0,0,1-1.35,1.34h-.16a1.19,1.19,0,0,1-1.34-1.34V131.1a1.19,1.19,0,0,1,1.34-1.34h.16a1.2,1.2,0,0,1,1.35,1.34v2.06Zm0-.63h1.51v-1.45a.62.62,0,0,0-.69-.7h-.12a.62.62,0,0,0-.7.7Z"/><path class="cls-2" d="M50.74,131.42a1.41,1.41,0,0,0,.38-1v-1.22a.63.63,0,0,0-.72-.7h-.21a.63.63,0,0,0-.72.7v1.54H48.8v-1.51a1.22,1.22,0,0,1,1.38-1.37h.25a1.22,1.22,0,0,1,1.38,1.37v1.08a2.15,2.15,0,0,1-.56,1.49l-1.37,1.72a1.68,1.68,0,0,0-.42,1.24v.55h2.36V136h-3v-1.23a2.25,2.25,0,0,1,.6-1.62Z"/><path class="cls-2" d="M54.42,136.05H54.1a1.25,1.25,0,0,1-1.41-1.41v-5.35a1.25,1.25,0,0,1,1.41-1.4h.32a1.25,1.25,0,0,1,1.41,1.4v5.35A1.25,1.25,0,0,1,54.42,136.05Zm0-7.52h-.3a.65.65,0,0,0-.74.73v5.42a.65.65,0,0,0,.74.73h.3a.66.66,0,0,0,.75-.73v-5.42A.66.66,0,0,0,54.41,128.53Z"/><path class="cls-2" d="M57.86,136H57.2V129.1h-.74v-.5l.15,0a1,1,0,0,0,.79-.51l.11-.15h.35Z"/><path class="cls-2" d="M60.05,136h-.66V129.1h-.74v-.5l.15,0a1,1,0,0,0,.79-.51l.11-.15h.35Z"/></g></g></svg>