<svg xmlns="http://www.w3.org/2000/svg" viewBox="0 0 122.9 127.85"><defs><style>.cls-1{fill:#fff;}</style></defs><g id="レイヤー_2" data-name="レイヤー 2"><g id="レイヤー_1-2" data-name="レイヤー 1"><path class="cls-1" d="M91.88,63.27a5.09,5.09,0,0,0-6.32,1.26c-1.4,1.91-.89,4.47,1.6,6,1.93,1.54,4.56.91,6-1.15A4.64,4.64,0,0,0,91.88,63.27Z"/><path class="cls-1" d="M87.17,21.53a6.89,6.89,0,0,0-1.29,9c2.37,2.42,6.18,3.12,8.61.78A6.2,6.2,0,0,0,95.6,23C93.39,19.82,89.63,20,87.17,21.53Z"/><path class="cls-1" d="M45.56,80.91c.21.19.12-.11.18-.17a12.39,12.39,0,0,0-2.92.25A6,6,0,0,1,39,77.37c-1-1.49-.7-3.44-.28-5.05.32-2.36,3-4.18,5.28-4.6,1,.19,1.4.24,2.7.53,3.15.5,5.58,3.91,4.74,7.94C50.13,78.87,48.55,80.63,45.56,80.91Zm-1.05-9.78a3.28,3.28,0,0,0-2.69,2.29,6,6,0,0,0,.07,2.68,2.54,2.54,0,0,0,2,1.24,5.15,5.15,0,0,0,1.37.06,2.73,2.73,0,0,0,2.62-2.28,3.14,3.14,0,0,0-2.15-3.8A1.56,1.56,0,0,0,44.51,71.13Z"/><path class="cls-1" d="M53.18,7.63A2.66,2.66,0,0,0,56.69,9a2.83,2.83,0,0,0,1.67-3.49A2.6,2.6,0,0,0,54.8,4.12,2.64,2.64,0,0,0,53.18,7.63Z"/><path class="cls-1" d="M56.27,12.58a5.83,5.83,0,0,1-6.45-3.87,5.91,5.91,0,0,1,3.83-8c.54-.4,1.18-.4,1.47-.73,2.6-.09,5.76,1.32,6.34,4.4A6.5,6.5,0,0,1,57.75,13,3.67,3.67,0,0,1,56.27,12.58ZM55.08,1.35c-.41.08-.64.37-1,.48-2.48,1-4.08,4.06-2.79,6.63a4.73,4.73,0,0,0,5.06,2.9c.18.12.9-.19,1-.08a4.61,4.61,0,0,0,2.86-6.2A5.42,5.42,0,0,0,55.08,1.35Z"/><path class="cls-1" d="M65.89,45.31C64,42.43,64.92,42,64,38.66S63.06,35.32,62.1,32s-1-3.32-2-6.64-1-3.33-1.93-6.65-2.07-3.18-2-6.64a1.14,1.14,0,0,1,2.09-.59c1.92,2.88,1,3.29,2,6.61s.94,3.33,1.91,6.65.9,3.34,1.86,6.67,1,3.3,2,6.63,1.73,3.19,1.91,6.65A1.13,1.13,0,0,1,65.89,45.31Z"/><path class="cls-1" d="M66.71,46.11c-3.49.25-3.41-.86-6.82-1.66l-6.81-1.61c-3.41-.81-3.4-.86-6.81-1.67s-3.82.22-6.84-1.57a1.12,1.12,0,0,1,.51-2.08c3.49-.24,3.4.74,6.81,1.55l6.82,1.61c3.41.81,3.4.87,6.81,1.68s3.69,0,6.82,1.6A1.14,1.14,0,0,1,66.71,46.11Z"/><path class="cls-1" d="M88.57,67.69c-3.43-1.88-2.76-2.78-5.56-5.51s-2.84-2.69-5.64-5.43S74.59,54,71.79,51.26s-3.63-2.09-5.59-5.48a1.15,1.15,0,0,1,1.53-1.57c3.42,1.88,2.82,2.71,5.61,5.44s2.77,2.77,5.57,5.5l5.6,5.48c2.8,2.74,3.4,2.23,5.56,5.5A1.11,1.11,0,0,1,88.57,67.69Z"/><path class="cls-1" d="M49.17,71.9a1.19,1.19,0,0,1-1.82-1.31c1.4-3.77,2.33-3.28,4.67-6.56s2.38-3.25,4.71-6.53,2.35-3.27,4.69-6.55,1.53-4,4.65-6.59a1.17,1.17,0,0,1,1.8,1.28c-1.39,3.77-2.39,3.24-4.73,6.52s-2.28,3.32-4.61,6.6-2.66,3.07-4.7,6.55S52.28,69.34,49.17,71.9Z"/><path class="cls-1" d="M67.64,45.87a1.17,1.17,0,0,1-1.36-1.74c2.19-3.05,3-2.29,5.93-4.6s2.94-2.35,5.9-4.66,3-2.27,6-4.58S86.5,27.08,90,25.68a1.16,1.16,0,0,1,1.36,1.72c-2.19,3-3,2.29-5.94,4.6l-5.92,4.62c-3,2.31-3.22,2-5.95,4.59S71.13,44.48,67.64,45.87Z"/><path class="cls-1" d="M32.55,39.65a3.74,3.74,0,0,0,3.73-3.81,3.69,3.69,0,0,0-3.89-3.38,3.78,3.78,0,0,0-3.65,3.75A3.28,3.28,0,0,0,32.55,39.65Z"/><path class="cls-1" d="M33.72,43.83c-.34.57,0,.23-.53.73.25-.21.12.2-.25-.14-2.08,0-4.62-.66-5.64-1.84-1.8-2.33-3-3.67-2.78-6,0-4.1,3.17-8.2,7.27-8.6,2-.33,4,.15,6.55,2.06A13.68,13.68,0,0,1,41,35.94C41.29,40,37.86,44.16,33.72,43.83ZM32,28.92a8.08,8.08,0,0,0-6.55,7.78c.43,1.64,1.25,3.67,2.44,4.61a8.52,8.52,0,0,0,5.17,2c3.68-.9,6.32-3.58,6.44-7.47a6.26,6.26,0,0,0-2.67-4.75c-1.48-1.43-3.33-2.27-4.42-1.82C32.15,29.61,32,29.57,32,28.92Z"/><path class="cls-1" d="M0,99.35H3.47V112h7.85v3.15H0Z"/><path class="cls-1" d="M11.1,107.28v0a8.15,8.15,0,0,1,8.4-8.15,8.07,8.07,0,0,1,8.35,8.11v0a8.15,8.15,0,0,1-8.4,8.15A8.07,8.07,0,0,1,11.1,107.28Zm13.12,0v0a4.79,4.79,0,0,0-4.77-5,4.71,4.71,0,0,0-4.73,4.91v0a4.79,4.79,0,0,0,4.78,5A4.7,4.7,0,0,0,24.22,107.28Z"/><path class="cls-1" d="M29.25,99.35h6.14c5,0,8.38,3.4,8.38,7.84v0c0,4.43-3.43,7.88-8.38,7.88H29.25ZM35.39,112a4.49,4.49,0,0,0,4.75-4.7v0a4.52,4.52,0,0,0-4.75-4.75H32.71V112Z"/><path class="cls-1" d="M48.92,99.35H50.7v15.76H48.92Z"/><path class="cls-1" d="M52.55,103.47h1.73v2a4.4,4.4,0,0,1,4-2.28c2.81,0,4.45,1.89,4.45,4.66v7.23H61v-6.8c0-2.16-1.17-3.51-3.22-3.51a3.43,3.43,0,0,0-3.49,3.65v6.66H52.55Z"/><path class="cls-1" d="M64.44,99h2v1.92h-2Zm.11,4.46h1.73v11.64H64.55Z"/><path class="cls-1" d="M69.2,112v-7H67.58v-1.53H69.2V100h1.74v3.51h3.69V105H70.94v6.8a1.72,1.72,0,0,0,2,1.94,3.65,3.65,0,0,0,1.68-.41v1.49a4.39,4.39,0,0,1-2.09.49A3,3,0,0,1,69.2,112Z"/><path class="cls-1" d="M76,99h2v1.92H76Zm.11,4.46h1.74v11.64H76.13Z"/><path class="cls-1" d="M79,111.73v0c0-2.5,2-3.81,5-3.81a12.24,12.24,0,0,1,3.56.5V108c0-2.07-1.26-3.15-3.44-3.15a8.06,8.06,0,0,0-3.54.83L80,104.28a9.59,9.59,0,0,1,4.23-1A5.2,5.2,0,0,1,88,104.57,4.62,4.62,0,0,1,89.23,108v7.11H87.52v-1.73a5.12,5.12,0,0,1-4.19,2C81.15,115.36,79,114.12,79,111.73Zm8.55-.9v-1.08a11.85,11.85,0,0,0-3.39-.49c-2.17,0-3.4.94-3.4,2.34v0c0,1.46,1.35,2.32,2.92,2.32C85.81,114,87.54,112.68,87.54,110.83Z"/><path class="cls-1" d="M91.48,112v-7H89.87v-1.53h1.61V100h1.74v3.51h3.69V105H93.22v6.8a1.73,1.73,0,0,0,2,1.94,3.71,3.71,0,0,0,1.69-.41v1.49a4.46,4.46,0,0,1-2.1.49A3,3,0,0,1,91.48,112Z"/><path class="cls-1" d="M98.44,99h2v1.92h-2Zm.11,4.46h1.74v11.64H98.55Z"/><path class="cls-1" d="M101.14,103.47h1.92l3.92,9.66,3.93-9.66h1.88l-5.07,11.73h-1.53Z"/><path class="cls-1" d="M117.72,113.87a4.84,4.84,0,0,0,3.67-1.64l1.07,1a6,6,0,0,1-4.79,2.18,5.79,5.79,0,0,1-5.81-6.08c0-3.38,2.37-6.08,5.58-6.08,3.45,0,5.43,2.75,5.43,6.17,0,.16,0,.34,0,.61h-9.23A4.07,4.07,0,0,0,117.72,113.87Zm3.4-5.27c-.21-2.11-1.42-3.91-3.72-3.91-2,0-3.53,1.66-3.78,3.91Z"/><polygon class="cls-1" points="83.06 120.61 84.22 122.96 86.83 123.34 84.94 125.18 85.39 127.77 83.06 126.55 80.73 127.77 81.18 125.18 79.29 123.34 81.9 122.96 83.06 120.61"/><polygon class="cls-1" points="92.08 120.61 93.24 122.96 95.85 123.34 93.96 125.18 94.41 127.77 92.08 126.55 89.75 127.77 90.19 125.18 88.31 123.34 90.91 122.96 92.08 120.61"/><polygon class="cls-1" points="101.1 120.61 102.26 122.96 104.87 123.34 102.98 125.18 103.43 127.77 101.1 126.55 98.76 127.77 99.21 125.18 97.33 123.34 99.93 122.96 101.1 120.61"/><polygon class="cls-1" points="110.12 120.61 111.28 122.96 113.88 123.34 112 125.18 112.44 127.77 110.12 126.55 107.78 127.77 108.23 125.18 106.34 123.34 108.95 122.96 110.12 120.61"/><polygon class="cls-1" points="119.13 120.61 120.3 122.96 122.9 123.34 121.02 125.18 121.46 127.77 119.13 126.55 116.8 127.77 117.25 125.18 115.36 123.34 117.97 122.96 119.13 120.61"/><path class="cls-1" d="M.1,120.7H1.38v4.64H4.27v1.16H.1Z"/><path class="cls-1" d="M5.11,120.58h.73v.7H5.11Zm0,1.64h.64v4.28H5.15Z"/><path class="cls-1" d="M6.94,122.22h.64V123A1.62,1.62,0,0,1,9,122.13a1.57,1.57,0,0,1,1.65,1.71v2.66h-.64V124a1.14,1.14,0,0,0-1.19-1.29,1.26,1.26,0,0,0-1.28,1.34v2.45H6.94Z"/><path class="cls-1" d="M11.72,120.45h.64v4.18l2.31-2.41h.79l-1.8,1.84,1.86,2.44h-.76l-1.53-2-.87.88v1.11h-.64Z"/><path class="cls-1" d="M18,126.05a1.77,1.77,0,0,0,1.35-.61l.39.36a2.2,2.2,0,0,1-1.76.8,2.24,2.24,0,0,1-.08-4.47,2,2,0,0,1,2,2.27,1.94,1.94,0,0,1,0,.22H16.49A1.49,1.49,0,0,0,18,126.05Zm1.25-1.94a1.41,1.41,0,0,0-1.37-1.44,1.47,1.47,0,0,0-1.39,1.44Z"/><path class="cls-1" d="M20.6,124.37h0a2.1,2.1,0,0,1,2-2.23,1.94,1.94,0,0,1,1.64.91v-2.59h.64v6h-.64v-.86a1.93,1.93,0,0,1-1.64,1A2.09,2.09,0,0,1,20.6,124.37Zm3.71,0v0a1.59,1.59,0,0,0-1.55-1.65,1.52,1.52,0,0,0-1.51,1.65v0A1.54,1.54,0,0,0,22.76,126,1.59,1.59,0,0,0,24.31,124.37Z"/><path class="cls-1" d="M26.58,123.62v0a3.09,3.09,0,0,1,6.17,0h0a3.09,3.09,0,0,1-6.17,0Zm4.83,0v0a1.76,1.76,0,0,0-1.75-1.82,1.73,1.73,0,0,0-1.74,1.81h0a1.76,1.76,0,0,0,1.75,1.82A1.72,1.72,0,0,0,31.41,123.62Z"/><path class="cls-1" d="M33.41,122.22h.64v.86a1.92,1.92,0,0,1,1.64-1,2.09,2.09,0,0,1,2,2.22v0a2.09,2.09,0,0,1-2,2.22,1.92,1.92,0,0,1-1.64-.91v2.15h-.64Zm3.67,2.15h0a1.54,1.54,0,0,0-1.51-1.66A1.6,1.6,0,0,0,34,124.35v0A1.59,1.59,0,0,0,35.57,126,1.51,1.51,0,0,0,37.08,124.37Z"/><path class="cls-1" d="M40.64,126.05a1.76,1.76,0,0,0,1.35-.61l.4.36a2.22,2.22,0,0,1-1.77.8,2.24,2.24,0,0,1-.08-4.47,2,2,0,0,1,2,2.27,1.94,1.94,0,0,1,0,.22h-3.4A1.49,1.49,0,0,0,40.64,126.05Zm1.25-1.94a1.4,1.4,0,0,0-1.37-1.44,1.48,1.48,0,0,0-1.39,1.44Z"/><path class="cls-1" d="M43.5,122.22h.63V123a1.64,1.64,0,0,1,1.47-.83,1.56,1.56,0,0,1,1.64,1.71v2.66H46.6V124a1.14,1.14,0,0,0-1.18-1.29,1.26,1.26,0,0,0-1.29,1.34v2.45H43.5Z"/><path class="cls-1" d="M49.09,120.7h2.26a2.89,2.89,0,0,1,3.08,2.89h0a2.9,2.9,0,0,1-3.08,2.9H49.09Zm2.26,4.65a1.65,1.65,0,0,0,1.75-1.73v0a1.67,1.67,0,0,0-1.75-1.75h-1v3.5Z"/><path class="cls-1" d="M54.94,125.26v0c0-.92.74-1.4,1.83-1.4a4.48,4.48,0,0,1,1.31.19v-.14c0-.76-.47-1.16-1.27-1.16a3,3,0,0,0-1.3.31l-.19-.52a3.41,3.41,0,0,1,1.55-.37,1.94,1.94,0,0,1,1.39.47,1.7,1.7,0,0,1,.45,1.26v2.62h-.63v-.64a1.87,1.87,0,0,1-1.55.73A1.43,1.43,0,0,1,54.94,125.26Zm3.14-.33v-.4a4.37,4.37,0,0,0-1.25-.18c-.79,0-1.25.35-1.25.86v0c0,.54.5.85,1.08.85A1.27,1.27,0,0,0,58.08,124.93Z"/><path class="cls-1" d="M60,125.37v-2.59h-.59v-.56H60v-1.29h.64v1.29H62v.56H60.59v2.51a.63.63,0,0,0,.72.71,1.29,1.29,0,0,0,.62-.15v.55a1.65,1.65,0,0,1-.77.18A1.09,1.09,0,0,1,60,125.37Z"/><path class="cls-1" d="M62.59,125.26v0c0-.92.75-1.4,1.83-1.4a4.38,4.38,0,0,1,1.31.19v-.14c0-.76-.46-1.16-1.27-1.16a3,3,0,0,0-1.3.31l-.19-.52a3.45,3.45,0,0,1,1.56-.37,1.92,1.92,0,0,1,1.38.47,1.7,1.7,0,0,1,.45,1.26v2.62h-.63v-.64a1.86,1.86,0,0,1-1.54.73A1.44,1.44,0,0,1,62.59,125.26Zm3.15-.33v-.4a4.49,4.49,0,0,0-1.25-.18c-.8,0-1.25.35-1.25.86v0c0,.54.49.85,1.07.85A1.28,1.28,0,0,0,65.74,124.93Z"/><path class="cls-1" d="M67.64,125.63h.77v.87h-.77Z"/><path class="cls-1" d="M69,127.81v-.52a1.82,1.82,0,0,0,.32,0c.29,0,.49-.18.49-.58v-4.52h.63v4.53c0,.76-.39,1.1-1,1.1A1.33,1.33,0,0,1,69,127.81Zm.77-7.23h.73v.7h-.73Z"/><path class="cls-1" d="M71.93,122.22h.64v.86a1.93,1.93,0,0,1,1.64-1,2.09,2.09,0,0,1,2.05,2.22v0a2.09,2.09,0,0,1-2.05,2.22,1.92,1.92,0,0,1-1.64-.91v2.15h-.64Zm3.67,2.15h0a1.54,1.54,0,0,0-1.51-1.66,1.6,1.6,0,0,0-1.55,1.65v0A1.59,1.59,0,0,0,74.09,126,1.51,1.51,0,0,0,75.6,124.37Z"/></g></g></svg>