<svg xmlns="http://www.w3.org/2000/svg" viewBox="0 0 204.46 51.37"><defs><style>.cls-1{fill:#e07a36;}.cls-2{fill:#231815;}</style></defs><g id="レイヤー_2" data-name="レイヤー 2"><g id="レイヤー_1-2" data-name="レイヤー 1"><path class="cls-1" d="M42.86,40.1a3.24,3.24,0,0,0-4,.8,2.58,2.58,0,0,0,1,3.83A2.63,2.63,0,0,0,43.7,44,2.93,2.93,0,0,0,42.86,40.1Z"/><path class="cls-1" d="M39.86,13.55A4.39,4.39,0,0,0,39,19.26c1.51,1.54,3.93,2,5.48.5a3.93,3.93,0,0,0,.7-5.25A3.87,3.87,0,0,0,39.86,13.55Z"/><path class="cls-1" d="M13.4,51.32c.13.12.08-.07.11-.11a7.4,7.4,0,0,0-1.85.16,3.85,3.85,0,0,1-2.43-2.3,4,4,0,0,1-.18-3.22c.21-1.5,1.9-2.66,3.37-2.92.64.12.88.15,1.71.34a4.07,4.07,0,0,1,3,5C16.3,50,15.3,51.14,13.4,51.32Zm-.67-6.22A2.1,2.1,0,0,0,11,46.55a3.84,3.84,0,0,0,.05,1.71,1.57,1.57,0,0,0,1.29.78,2.83,2.83,0,0,0,.88,0,1.72,1.72,0,0,0,1.66-1.44,2,2,0,0,0-1.37-2.42A1,1,0,0,0,12.73,45.1Z"/><path class="cls-1" d="M18.2,4.56a1.92,1.92,0,0,0,2.32,1.05,1.54,1.54,0,0,0,.92-2.1,1.49,1.49,0,0,0-2.14-1A1.65,1.65,0,0,0,18.2,4.56Z"/><path class="cls-1" d="M20.2,7.89a3.2,3.2,0,0,1-3.94-2.31c-1-2,.19-4.52,2.06-5.47a2,2,0,0,0,.85-.1C21.08-.08,23,.6,23.7,2.71c1,1.76-.44,4.56-2.21,5A9.27,9.27,0,0,1,20.2,7.89ZM19.45.74c-.3.17-.37.37-.54.42a3.25,3.25,0,0,0-2.06,3.92A3.18,3.18,0,0,0,20,7.2c.3,0,.72-.31,1-.13A3.58,3.58,0,0,0,22.93,2.8,3.61,3.61,0,0,0,19.45.74Z"/><path class="cls-1" d="M26.33,28.68c-1.1-1.47-.52-1.77-1-3.53s-.46-1.77-1-3.53-.53-1.76-1-3.52l-1-3.52c-.51-1.76-.55-1.75-1.06-3.52s-1.13-1.69-1-3.52a.73.73,0,0,1,1.32-.41c1.1,1.47.5,1.78,1,3.54s.47,1.77,1,3.53.56,1.75,1.07,3.51.49,1.76,1,3.53.53,1.75,1,3.51,1,1.7,1,3.53A.73.73,0,0,1,26.33,28.68Z"/><path class="cls-1" d="M26.85,29.19c-1.76.24-1.74-.45-3.47-.86l-3.47-.82c-1.73-.41-1.72-.44-3.46-.85s-1.74-.38-3.48-.79S11,26,9.52,25a.73.73,0,0,1,.3-1.34c1.77-.25,1.74.41,3.47.82s1.73.45,3.46.86l3.47.81,3.47.82c1.74.42,1.92-.06,3.49.8A.75.75,0,0,1,26.85,29.19Z"/><path class="cls-1" d="M40.75,42.91c-1.8-.84-1.4-1.42-2.82-2.81s-1.45-1.36-2.87-2.76-1.42-1.4-2.84-2.79l-2.85-2.79c-1.42-1.39-2-1-2.85-2.78a.76.76,0,0,1,1-1c1.8.85,1.41,1.42,2.83,2.81l2.85,2.78c1.42,1.4,1.4,1.42,2.83,2.81s1.44,1.37,2.86,2.76,1.79,1.11,2.83,2.81A.71.71,0,0,1,40.75,42.91Z"/><path class="cls-1" d="M15.69,45.59a.76.76,0,0,1-1.15-.83c.59-2,1.18-1.68,2.37-3.34s1.22-1.65,2.41-3.32l2.38-3.33c1.19-1.67,1.17-1.69,2.36-3.36s.71-2.15,2.37-3.35a.73.73,0,0,1,1.12.81c-.59,2-1.15,1.69-2.34,3.36l-2.39,3.32-2.38,3.34a26,26,0,0,0-2.38,3.34C17,44.05,17.35,44.39,15.69,45.59Z"/><path class="cls-1" d="M27.44,29a.75.75,0,0,1-.86-1.11c1-1.61,1.51-1.16,3-2.33s1.49-1.2,3-2.38,1.53-1.15,3-2.32l3-2.35c1.5-1.17,1.17-1.8,3-2.39a.76.76,0,0,1,.87,1.12c-1,1.62-1.51,1.18-3,2.36S38,20.78,36.47,22l-3,2.34a23.86,23.86,0,0,0-3,2.37C29.06,28,29.26,28.44,27.44,29Z"/><path class="cls-1" d="M5.12,25.09a2.38,2.38,0,0,0,2.46-2.34,2.77,2.77,0,0,0-2.69-2.37A2.82,2.82,0,0,0,2.52,23,2.34,2.34,0,0,0,5.12,25.09Z"/><path class="cls-1" d="M5.64,28.21c.22.05-.19-.39-.23-.49.18.09.15.06-.22.36A7.32,7.32,0,0,1,1.6,26.91,7.67,7.67,0,0,1,0,23.37c-.1-3,2.15-5.63,4.76-5.5a5.08,5.08,0,0,1,3.85,1.21,4,4,0,0,1,1.63,3.4A5.05,5.05,0,0,1,5.64,28.21Zm-1-9.56C2.49,18.94.43,20.57.52,22.8A10.64,10.64,0,0,0,2,26.1a7.32,7.32,0,0,0,3.29,1.27c2.38-.43,4.44-2.55,4.24-4.53A3.3,3.3,0,0,0,8,19.8a4,4,0,0,0-3.08-1.23C5,18.57,4.82,18.67,4.6,18.65Z"/><path class="cls-2" d="M52.41,19.31h4.05V34.06h9.19v3.68H52.41Z"/><path class="cls-2" d="M65.39,28.58v0A9.8,9.8,0,0,1,85,28.47v.06a9.8,9.8,0,0,1-19.59,0Zm15.35,0v0a5.61,5.61,0,0,0-5.58-5.8,5.51,5.51,0,0,0-5.53,5.74v.06a5.6,5.6,0,0,0,5.58,5.79A5.51,5.51,0,0,0,80.74,28.58Z"/><path class="cls-2" d="M86.62,19.31h7.19c5.79,0,9.79,4,9.79,9.16v.06c0,5.18-4,9.21-9.79,9.21H86.62Zm7.19,14.77a5.25,5.25,0,0,0,5.55-5.5v0A5.29,5.29,0,0,0,93.81,23H90.67V34.08Z"/><path class="cls-2" d="M109.63,19.31h2.08V37.74h-2.08Z"/><path class="cls-2" d="M113.87,24.13h2V26.5a5.17,5.17,0,0,1,4.66-2.66c3.29,0,5.21,2.21,5.21,5.45v8.45h-2v-8c0-2.53-1.37-4.11-3.77-4.11A4,4,0,0,0,115.9,30v7.79h-2Z"/><path class="cls-2" d="M127.78,18.92h2.32v2.23h-2.32Zm.13,5.21h2V37.74h-2Z"/><path class="cls-2" d="M133.35,34.14V25.92h-1.89V24.13h1.89V20h2v4.11h4.32v1.79h-4.32v7.95a2,2,0,0,0,2.29,2.27,4.21,4.21,0,0,0,2-.48V37.4a5.13,5.13,0,0,1-2.45.58C135,38,133.35,36.9,133.35,34.14Z"/><path class="cls-2" d="M141.32,18.92h2.32v2.23h-2.32Zm.14,5.21h2V37.74h-2Z"/><path class="cls-2" d="M144.8,33.79v0c0-2.92,2.37-4.45,5.82-4.45a14.32,14.32,0,0,1,4.16.58v-.42c0-2.42-1.47-3.69-4-3.69a9.45,9.45,0,0,0-4.13,1L146,25.08a11.09,11.09,0,0,1,5-1.16,6.06,6.06,0,0,1,4.4,1.5,5.38,5.38,0,0,1,1.42,4v8.32h-2v-2a6,6,0,0,1-4.9,2.32C147.33,38,144.8,36.58,144.8,33.79Zm10-1V31.48a14,14,0,0,0-4-.58c-2.53,0-4,1.1-4,2.73v.06c0,1.71,1.58,2.71,3.43,2.71C152.78,36.4,154.81,34.9,154.81,32.74Z"/><path class="cls-2" d="M159.42,34.14V25.92h-1.9V24.13h1.9V20h2v4.11h4.32v1.79h-4.32v7.95a2,2,0,0,0,2.29,2.27,4.18,4.18,0,0,0,2-.48V37.4a5.07,5.07,0,0,1-2.45.58C161.08,38,159.42,36.9,159.42,34.14Z"/><path class="cls-2" d="M167.55,18.92h2.32v2.23h-2.32Zm.13,5.21h2V37.74h-2Z"/><path class="cls-2" d="M170.71,24.13H173l4.58,11.3,4.61-11.3h2.19L178.4,37.85h-1.79Z"/><path class="cls-2" d="M190.1,36.29a5.63,5.63,0,0,0,4.29-1.92l1.26,1.13A7,7,0,0,1,190,38.06,6.77,6.77,0,0,1,183.25,31c0-3.95,2.76-7.11,6.53-7.11,4,0,6.35,3.21,6.35,7.21a6.92,6.92,0,0,1,0,.72H185.3A4.76,4.76,0,0,0,190.1,36.29Zm4-6.16c-.24-2.47-1.66-4.58-4.34-4.58-2.35,0-4.14,1.95-4.43,4.58Z"/><polygon class="cls-1" points="200.29 18.76 201.58 21.37 204.46 21.79 202.38 23.82 202.87 26.69 200.29 25.33 197.72 26.69 198.21 23.82 196.13 21.79 199 21.37 200.29 18.76"/></g></g></svg>